<?xml version="1.0" standalone="no"?>
<!DOCTYPE svg PUBLIC "-//W3C//DTD SVG 20010904//EN"
 "http://www.w3.org/TR/2001/REC-SVG-20010904/DTD/svg10.dtd">
<svg version="1.0" xmlns="http://www.w3.org/2000/svg"
 width="187.000000pt" height="196.000000pt" viewBox="0 0 187.000000 196.000000"
 preserveAspectRatio="xMidYMid meet">
<g transform="translate(0.000000,196.000000) scale(0.100000,-0.100000)"
fill="#000000" stroke="none">
<path d="M1498 1863 c7 -3 16 -2 19 1 4 3 -2 6 -13 5 -11 0 -14 -3 -6 -6z"/>
<path d="M1320 1812 c-8 -3 -21 -11 -28 -19 -8 -7 -23 -11 -33 -8 -10 4 -19 2
-19 -3 0 -5 -30 -19 -67 -31 -37 -12 -74 -27 -81 -33 -7 -6 -23 -13 -35 -14
-40 -4 -77 -23 -77 -39 0 -9 -4 -14 -9 -11 -4 3 -16 -3 -26 -14 -11 -12 -25
-18 -36 -15 -14 5 -16 1 -12 -15 4 -14 1 -20 -12 -20 -9 0 -29 -9 -43 -19 -15
-10 -31 -20 -37 -21 -5 -1 -9 -5 -8 -10 1 -4 -12 -20 -29 -36 -17 -16 -28 -23
-23 -15 5 9 3 12 -6 9 -8 -3 -13 -13 -13 -22 2 -16 -11 -22 -19 -8 -2 4 -2 2
-1 -5 2 -6 -4 -17 -12 -24 -12 -10 -13 -9 -8 6 5 13 4 16 -4 11 -7 -4 -12 -17
-12 -30 0 -26 -18 -46 -35 -40 -15 6 -56 -26 -49 -38 3 -4 -1 -8 -9 -8 -8 0
-14 -8 -13 -17 1 -12 -5 -17 -18 -15 -12 2 -15 -1 -11 -8 5 -9 1 -10 -16 -5
-18 4 -20 4 -10 -4 12 -8 12 -12 2 -25 -8 -9 -19 -16 -25 -16 -6 0 -3 7 7 14
16 12 16 14 2 20 -9 3 -14 2 -11 -3 8 -12 -33 -53 -46 -45 -7 4 -6 0 1 -14 8
-16 6 -24 -12 -44 -32 -36 -58 -119 -56 -183 1 -30 6 -55 11 -55 4 0 8 -7 8
-16 0 -8 -4 -13 -9 -10 -17 11 -41 -6 -41 -29 0 -13 -7 -26 -16 -29 -8 -3 -12
-11 -9 -16 4 -6 0 -21 -8 -34 -19 -29 -26 -182 -8 -179 11 3 15 -8 12 -37 -1
-9 14 -32 33 -53 27 -30 30 -36 14 -31 -15 4 -18 3 -13 -6 5 -8 3 -11 -6 -8
-29 10 -67 -52 -46 -74 7 -7 16 -21 19 -30 5 -13 16 -16 45 -12 27 3 34 1 23
-6 -12 -8 -12 -10 -1 -10 10 0 12 -8 7 -31 -4 -21 0 -42 12 -63 9 -17 18 -32
18 -34 1 -1 15 -7 33 -12 21 -6 29 -5 25 1 -3 6 3 5 14 -2 12 -7 18 -17 16
-21 -3 -4 2 -8 10 -8 9 0 15 -3 15 -8 -4 -25 4 -41 22 -47 29 -10 88 -48 89
-59 0 -14 63 -66 87 -72 11 -3 144 -4 295 -2 252 4 278 6 333 27 33 12 68 20
78 17 9 -2 15 0 11 5 -3 5 -4 9 -2 9 2 0 33 11 70 24 37 13 65 19 62 15 -3 -5
2 -9 11 -9 13 0 14 4 5 20 -8 16 -8 18 4 14 8 -3 17 2 20 14 7 21 103 122 117
122 5 0 9 7 9 15 0 21 -7 19 -40 -15 -16 -16 -31 -26 -34 -22 -4 6 -7 60 -7
125 0 9 -5 17 -11 17 -6 0 -8 -11 -3 -27 6 -24 5 -25 -11 -12 -15 12 -16 12
-10 -9 11 -35 0 -26 -23 18 -26 50 -27 65 -2 26 19 -28 19 -28 30 -7 10 17 9
22 -4 27 -8 3 -15 14 -15 23 -1 18 -85 94 -100 89 -8 -3 25 -89 50 -128 6 -8
14 -25 20 -38 5 -12 21 -39 34 -58 28 -42 25 -63 -17 -103 -41 -41 -187 -111
-230 -111 -13 0 -27 -4 -33 -10 -5 -5 -74 -17 -153 -25 -111 -13 -159 -14
-211 -6 -56 9 -74 8 -105 -5 -27 -11 -52 -14 -86 -9 -41 6 -55 14 -85 48 -38
44 -64 94 -64 124 0 13 3 14 12 5 7 -7 20 -12 31 -12 17 0 17 1 2 17 -54 53
-86 154 -52 166 16 5 67 -12 67 -24 0 -4 9 -13 21 -19 46 -25 28 5 -54 89 -83
84 -100 112 -77 126 12 7 130 -34 148 -52 7 -7 18 -13 24 -13 19 0 142 -106
168 -143 27 -39 50 -55 50 -33 0 43 -132 172 -218 212 -71 33 -68 30 -50 51
59 67 4 246 -109 360 -57 59 -84 65 -150 38 -19 -8 -37 -15 -39 -15 -2 0 -4
27 -4 60 0 46 7 76 29 123 47 101 115 159 240 203 58 20 61 23 41 34 -17 9
-26 8 -46 -5 -13 -8 -24 -13 -24 -9 0 3 -12 -1 -26 -11 l-26 -17 18 31 c19 33
30 38 36 20 2 -7 28 13 58 43 30 31 82 76 115 102 33 26 65 50 71 55 28 22
207 120 264 144 36 16 74 32 85 37 11 5 36 13 55 19 67 19 116 40 95 41 -11 1
-27 3 -35 4 -8 2 -22 1 -30 -2z m-290 -132 c-8 -5 -22 -9 -30 -9 -10 0 -8 3 5
9 27 12 43 12 25 0z m-490 -755 c48 -25 145 -185 111 -185 -5 0 -11 -14 -15
-31 -3 -17 -20 -44 -37 -60 -27 -25 -39 -29 -89 -29 -70 0 -96 -21 -87 -72 3
-18 3 -27 0 -20 -2 6 -11 12 -18 12 -22 0 -73 70 -85 117 -23 92 20 196 105
255 46 31 74 34 115 13z m147 -247 c8 -58 8 -60 -9 -100 -10 -28 -41 -38 -53
-18 -11 18 -54 10 -72 -14 -17 -22 -19 -22 -43 -8 -27 17 -50 41 -50 54 0 4
19 8 41 8 77 0 116 19 139 65 11 23 20 47 20 53 0 7 4 12 10 12 5 0 13 -24 17
-52z m-353 -104 c3 -8 2 -12 -4 -9 -6 3 -10 10 -10 16 0 14 7 11 14 -7z m116
-14 c0 -5 -2 -10 -4 -10 -3 0 -8 5 -11 10 -3 6 -1 10 4 10 6 0 11 -4 11 -10z
m83 -72 c15 -7 29 -20 32 -29 3 -8 19 -26 36 -38 l30 -22 -24 -20 c-38 -29
-42 -65 -15 -118 16 -31 22 -59 20 -87 l-3 -41 -35 16 c-36 16 -44 40 -19 61
31 26 17 40 -37 40 -51 0 -118 31 -118 55 0 17 60 45 95 45 80 0 25 29 -85 46
-56 8 -110 29 -110 44 0 9 14 17 90 48 35 15 111 14 143 0z m1114 -200 c-3 -8
-6 -5 -6 6 -1 11 2 17 5 13 3 -3 4 -12 1 -19z"/>
<path d="M450 876 c0 -2 7 -7 16 -10 8 -3 12 -2 9 4 -6 10 -25 14 -25 6z"/>
<path d="M581 714 c0 -11 3 -14 6 -6 3 7 2 16 -1 19 -3 4 -6 -2 -5 -13z"/>
<path d="M393 629 c-2 -23 3 -25 10 -4 4 8 3 16 -1 19 -4 3 -9 -4 -9 -15z"/>
<path d="M1486 1795 c-9 -9 -17 -11 -21 -5 -3 5 -12 10 -18 9 -9 0 -9 -2 0 -6
10 -3 10 -10 2 -25 -18 -33 -4 -30 36 7 22 19 34 35 28 35 -7 0 -18 -7 -27
-15z"/>
<path d="M1195 1780 c3 -5 8 -10 11 -10 2 0 4 5 4 10 0 6 -5 10 -11 10 -5 0
-7 -4 -4 -10z"/>
<path d="M1385 1776 c-17 -12 -17 -14 3 -34 12 -12 29 -22 37 -22 8 0 15 -6
15 -13 0 -14 -95 -108 -187 -186 -51 -42 -63 -73 -21 -50 28 15 116 28 264 39
130 9 218 2 220 -18 1 -6 2 -16 3 -21 0 -5 11 -11 23 -15 14 -3 19 -9 13 -14
-17 -15 -195 -102 -210 -102 -4 0 -21 -6 -38 -14 -18 -8 -40 -17 -50 -20 -37
-12 -6 -21 70 -20 43 1 83 -2 88 -6 6 -4 36 -10 67 -14 78 -8 108 -21 108 -46
0 -13 9 -22 25 -26 13 -3 29 -12 35 -19 9 -10 -6 -14 -72 -20 -46 -4 -92 -9
-103 -12 -11 -2 -62 -4 -112 -5 -51 0 -93 -4 -93 -9 0 -5 5 -9 10 -9 22 0 91
-52 100 -75 5 -13 18 -26 29 -30 23 -7 29 -25 9 -24 -7 0 -44 8 -83 18 -39 11
-77 15 -85 11 -8 -4 -31 -6 -50 -4 -19 2 -28 1 -20 -3 47 -21 79 -63 91 -122
6 -31 15 -65 19 -76 5 -11 12 -40 15 -65 4 -25 13 -58 20 -75 8 -16 17 -46 20
-65 8 -41 58 -144 79 -165 8 -9 17 -11 20 -6 4 5 3 11 -2 13 -15 6 -52 97 -46
115 5 15 4 16 -5 3 -10 -12 -11 -9 -10 15 1 17 1 41 0 55 -2 23 -3 24 -11 5
-8 -18 -9 -18 -9 5 -1 15 -6 31 -11 36 -6 6 -12 29 -14 51 -3 23 -10 51 -16
62 -6 12 -8 26 -5 31 4 6 1 26 -6 45 -11 29 -11 37 0 47 11 11 12 8 7 -12 -3
-14 -3 -19 0 -12 3 6 13 12 22 12 13 0 11 4 -6 16 -13 9 -26 13 -29 10 -3 -3
-12 2 -19 12 -10 14 -10 18 4 24 14 5 13 7 -4 7 -12 1 -28 9 -35 18 -12 15
-12 16 6 9 11 -4 25 -9 30 -10 6 -1 15 -5 22 -9 6 -4 33 -10 60 -13 26 -4 56
-11 65 -15 9 -5 26 -5 40 1 l23 9 -22 7 c-13 3 -23 11 -23 16 0 6 -11 19 -25
30 -29 23 -34 50 -7 42 14 -5 14 -3 -2 10 -11 9 -25 16 -32 16 -7 0 -16 4 -19
10 -3 6 1 7 9 4 9 -3 16 -2 16 3 0 5 26 8 58 6 97 -5 222 31 222 64 0 10 -14
26 -30 35 -17 9 -30 24 -30 32 0 10 -16 20 -46 27 -33 9 -42 14 -32 21 8 6 1
7 -22 3 -23 -4 -30 -3 -22 3 11 7 8 11 -10 15 -12 4 -24 2 -26 -3 -2 -6 -18
-9 -35 -9 -20 1 -25 3 -12 6 45 10 48 12 34 29 -10 13 -9 16 9 21 12 3 22 9
22 14 0 5 7 9 15 9 17 0 59 24 89 52 17 16 18 18 3 18 -9 0 -17 5 -17 10 0 6
5 10 10 10 6 0 10 5 10 10 0 6 -11 10 -25 10 -15 0 -25 6 -25 15 0 8 -8 19
-18 24 -21 11 -268 16 -294 6 -9 -4 -22 -4 -29 0 -6 4 -15 1 -20 -6 -7 -11 -9
-10 -9 5 0 13 -5 17 -20 13 -11 -3 -20 -1 -20 4 0 5 3 9 8 9 8 1 110 95 130
122 12 15 11 20 -7 39 -12 13 -19 30 -16 40 3 10 0 21 -6 25 -8 5 -9 3 -4 -7
7 -11 6 -12 -6 -2 -13 10 -19 10 -34 -1z m235 -430 c0 -2 -7 -7 -16 -10 -8 -3
-12 -2 -9 4 6 10 25 14 25 6z"/>
<path d="M1391 1594 c-7 -8 -11 -17 -9 -20 3 -2 13 5 23 16 10 11 14 20 9 20
-5 -1 -15 -8 -23 -16z"/>
<path d="M1548 1553 c7 -3 16 -2 19 1 4 3 -2 6 -13 5 -11 0 -14 -3 -6 -6z"/>
<path d="M1808 1543 c6 -2 18 -2 25 0 6 3 1 5 -13 5 -14 0 -19 -2 -12 -5z"/>
<path d="M750 1509 c0 -5 5 -7 10 -4 6 3 10 8 10 11 0 2 -4 4 -10 4 -5 0 -10
-5 -10 -11z"/>
<path d="M1778 1513 c12 -2 32 -2 45 0 12 2 2 4 -23 4 -25 0 -35 -2 -22 -4z"/>
<path d="M641 1414 c0 -11 3 -14 6 -6 3 7 2 16 -1 19 -3 4 -6 -2 -5 -13z"/>
<path d="M772 1410 c-7 -11 -9 -20 -4 -20 4 0 13 9 20 20 7 11 9 20 4 20 -4 0
-13 -9 -20 -20z"/>
<path d="M773 1363 c4 -3 2 -12 -4 -20 -9 -10 -8 -13 5 -13 11 0 14 5 10 12
-5 8 -2 9 9 5 10 -3 17 -2 17 2 0 5 -7 12 -16 15 -20 8 -29 8 -21 -1z"/>
<path d="M908 1313 c7 -3 16 -2 19 1 4 3 -2 6 -13 5 -11 0 -14 -3 -6 -6z"/>
<path d="M1060 1275 c0 -8 7 -15 16 -15 14 0 14 3 4 15 -7 8 -14 15 -16 15 -2
0 -4 -7 -4 -15z"/>
<path d="M1848 1233 c7 -3 16 -2 19 1 4 3 -2 6 -13 5 -11 0 -14 -3 -6 -6z"/>
<path d="M1120 1214 c0 -8 5 -12 10 -9 6 3 10 10 10 16 0 5 -4 9 -10 9 -5 0
-10 -7 -10 -16z"/>
<path d="M1140 1190 c0 -5 5 -10 10 -10 6 0 10 5 10 10 0 6 -4 10 -10 10 -5 0
-10 -4 -10 -10z"/>
<path d="M1608 1093 c7 -3 16 -2 19 1 4 3 -2 6 -13 5 -11 0 -14 -3 -6 -6z"/>
<path d="M352 1005 c0 -16 2 -22 5 -12 2 9 2 23 0 30 -3 6 -5 -1 -5 -18z"/>
<path d="M1650 1026 c0 -2 7 -7 16 -10 8 -3 12 -2 9 4 -6 10 -25 14 -25 6z"/>
<path d="M845 953 c-44 -22 -95 -74 -95 -95 0 -20 36 -26 42 -6 6 17 115 23
133 8 24 -20 45 4 23 26 -18 18 -57 23 -103 11 -29 -7 -29 -7 -7 6 12 7 19 17
15 21 -4 4 -3 6 2 5 21 -6 75 13 75 27 0 19 -47 18 -85 -3z"/>
<path d="M1698 923 c7 -3 16 -2 19 1 4 3 -2 6 -13 5 -11 0 -14 -3 -6 -6z"/>
<path d="M1725 910 l-40 -7 37 -2 c20 0 40 4 43 9 3 6 5 9 3 9 -2 -1 -21 -5
-43 -9z"/>
<path d="M1643 903 c9 -2 23 -2 30 0 6 3 -1 5 -18 5 -16 0 -22 -2 -12 -5z"/>
<path d="M1570 691 c0 -6 4 -13 10 -16 6 -3 7 1 4 9 -7 18 -14 21 -14 7z"/>
<path d="M1620 500 c0 -5 5 -10 10 -10 6 0 10 5 10 10 0 6 -4 10 -10 10 -5 0
-10 -4 -10 -10z"/>
<path d="M261 454 c0 -11 3 -14 6 -6 3 7 2 16 -1 19 -3 4 -6 -2 -5 -13z"/>
<path d="M1760 315 c-7 -9 -11 -17 -8 -20 2 -2 12 4 21 15 9 11 13 20 8 20 -5
0 -14 -7 -21 -15z"/>
<path d="M765 290 c3 -5 8 -10 11 -10 2 0 4 5 4 10 0 6 -5 10 -11 10 -5 0 -7
-4 -4 -10z"/>
<path d="M1827 226 c-19 -19 -38 -32 -42 -28 -4 4 -6 3 -4 -3 1 -5 -3 -23 -10
-40 -11 -25 -10 -31 6 -42 9 -8 24 -11 31 -8 8 3 25 5 38 5 15 0 24 6 24 15 0
18 -42 20 -70 3 -35 -22 -32 -1 5 38 44 45 70 83 62 90 -3 3 -21 -10 -40 -30z"/>
<path d="M1790 225 c-8 -9 -8 -15 -2 -15 12 0 26 19 19 26 -2 2 -10 -2 -17
-11z"/>
<path d="M1566 51 c-4 -5 -2 -12 3 -15 5 -4 12 -2 15 3 4 5 2 12 -3 15 -5 4
-12 2 -15 -3z"/>
<path d="M1854 49 c-3 -6 -15 -9 -25 -6 -11 3 -17 1 -13 -4 3 -5 -2 -9 -10 -9
-9 0 -16 -4 -16 -9 0 -5 -8 -12 -17 -15 -10 -3 0 -3 22 0 50 7 75 20 75 39 0
18 -6 19 -16 4z"/>
</g>
</svg>
